<svg width="40" height="31" viewBox="0 0 40 31" fill="none" xmlns="http://www.w3.org/2000/svg">
<path d="M7.019 10.275V20.688C7.019 20.948 6.928 21.039 6.655 21.039C6.395 21.052 5.459 21.065 4.497 21.026C4.666 21.312 4.848 21.767 4.9 22.053C6.135 22.053 6.941 22.027 7.409 21.858C7.877 21.702 8.072 21.416 8.072 20.688V10.275H7.019ZM10.165 13.59C11.27 15.449 12.323 17.893 12.635 19.427L13.675 19.011C13.337 17.438 12.232 15.059 11.101 13.226L10.165 13.59ZM3.613 13.317C3.288 15.072 2.573 17.321 1.416 18.699C1.676 18.803 2.105 19.037 2.339 19.219C3.522 17.763 4.276 15.41 4.705 13.499L3.613 13.317ZM18.108 17.269L17.263 17.594C18.888 20.181 21.969 21.559 25.986 22.014C26.103 21.754 26.363 21.338 26.558 21.117C22.632 20.753 19.525 19.505 18.108 17.269ZM23.451 16.749V16.905C22.008 19.401 18.225 20.74 14.663 21.182C14.819 21.39 15.014 21.793 15.092 22.053C18.849 21.481 22.775 20.077 24.478 17.1L23.828 16.71L23.646 16.749H23.451ZM14.663 14.877V15.709H26.324V14.877H14.663ZM15.326 11.107V11.939H25.739V11.107H15.326ZM16.093 12.979V13.772H25.024V12.979H16.093ZM19.98 10.08V15.41H20.955V10.08H19.98ZM18.875 15.449C18.108 16.489 16.678 17.698 14.689 18.53C14.923 18.686 15.235 18.998 15.378 19.245C17.432 18.244 18.94 16.983 19.954 15.657L18.875 15.449ZM18.173 16.749L17.458 17.581H23.659V16.749H18.173ZM34.371 10.392C34.046 12.329 33.357 13.902 32.122 14.89C32.291 15.111 32.499 15.618 32.551 15.839C34.046 14.656 34.865 12.81 35.294 10.535L34.371 10.392ZM32.98 15.254V16.164H37.881V15.254H32.98ZM37.465 15.254V15.449C37.309 19.193 37.114 20.558 36.828 20.883C36.711 21.026 36.594 21.052 36.386 21.052C36.165 21.052 35.658 21.039 35.112 20.987C35.255 21.234 35.346 21.624 35.359 21.897C35.931 21.923 36.503 21.936 36.828 21.897C37.192 21.858 37.426 21.767 37.647 21.481C38.037 21.013 38.219 19.622 38.401 15.709C38.414 15.566 38.414 15.254 38.414 15.254H37.465ZM34.592 15.709C34.371 18.4 33.669 20.259 31.875 21.312C32.083 21.468 32.421 21.845 32.538 22.014C34.436 20.753 35.255 18.777 35.528 15.761L34.592 15.709ZM37.205 10.301L36.321 10.47C36.802 12.862 37.491 14.37 38.895 15.722C39.025 15.436 39.324 15.124 39.584 14.929C38.31 13.785 37.647 12.472 37.205 10.301ZM29.561 10.093V22.04H30.471V10.093H29.561ZM27.585 14.565V15.488H32.187V14.565H27.585ZM29.522 14.942C29.119 16.437 28.222 18.322 27.403 19.31C27.572 19.557 27.806 19.973 27.923 20.259C28.82 19.115 29.704 16.918 30.159 15.189L29.522 14.942ZM30.38 15.982L29.899 16.424C30.315 16.918 31.381 18.348 31.719 18.959L32.317 18.179C32.044 17.828 30.744 16.32 30.38 15.982ZM27.676 11.172C27.936 12.056 28.222 13.213 28.326 13.98L29.093 13.785C28.976 13.031 28.69 11.887 28.404 11.003L27.676 11.172ZM31.602 10.899C31.407 11.77 31.03 13.031 30.718 13.798L31.394 14.006C31.732 13.278 32.148 12.095 32.473 11.133L31.602 10.899Z" fill="black"/>
</svg>
