<svg width="40" height="31" viewBox="0 0 40 31" fill="none" xmlns="http://www.w3.org/2000/svg">
<path d="M5.63995 20V21.24H14.2599V20H5.63995ZM8.05995 7.30001C7.55995 9.00001 6.59995 11.22 5.03995 12.86C5.37995 13.02 5.85995 13.4 6.09995 13.7C7.77995 11.84 8.77995 9.52001 9.41995 7.50001L8.05995 7.30001ZM8.49995 8.88001L7.89995 10.08H11.3799V8.88001H8.49995ZM7.45995 15.78H12.5199V17.54H7.45995V15.78ZM7.45995 13H12.5199V14.74H7.45995V13ZM6.29995 11.92V18.64H13.6999V11.92H6.29995ZM9.43995 12.44V18.06H10.5799V12.44H9.43995ZM9.25995 22.26C10.5399 23.14 12.0999 24.42 12.8199 25.28L13.7599 24.28C12.9999 23.44 11.4399 22.22 10.1399 21.38L9.25995 22.26ZM10.9799 8.88001V9.16001C10.7599 10.02 10.2799 11.36 9.85995 12.16C10.1799 12.32 10.6399 12.6 10.9199 12.78C11.4199 11.92 12.0599 10.56 12.4799 9.42001L11.5199 8.82001L11.2999 8.88001H10.9799ZM9.33995 18.38C9.17995 21.74 8.55995 23.58 5.35995 24.58C5.65995 24.82 6.01995 25.32 6.13995 25.64C9.71995 24.42 10.4999 22.22 10.7199 18.38H9.33995ZM3.95995 7.20001C3.23995 8.52001 1.81995 10.16 0.539946 11.2C0.779946 11.46 1.17995 12.02 1.35995 12.32C2.77995 11.12 4.33995 9.32001 5.31995 7.72001L3.95995 7.20001ZM4.37995 11.22C3.37995 13.32 1.81995 15.46 0.319946 16.9C0.579946 17.2 1.03995 17.9 1.19995 18.2C2.81995 16.56 4.55995 14.04 5.69995 11.68L4.37995 11.22ZM2.93995 14.88V25.6H4.29995V13.52L2.93995 14.88ZM14.3399 8.38001V9.74001H18.9599V8.38001H14.3399ZM14.0599 13.52V14.9H19.3599V13.52H14.0599ZM16.1799 14.22V23.8C16.1799 24.04 16.0999 24.1 15.8599 24.12C15.6199 24.12 14.8399 24.12 13.9599 24.1C14.1399 24.52 14.3399 25.14 14.3799 25.54C15.5999 25.54 16.4199 25.52 16.9399 25.28C17.4599 25.02 17.5999 24.6 17.5999 23.82V14.22H16.1799Z" fill="url(#paint0_linear_104_2)"/>
<path d="M21.0799 12.34V13.84H27.0999V12.34H21.0799ZM29.2399 7.26001V23.5C29.2399 23.88 29.0799 24 28.6999 24.02C28.2799 24.02 26.9999 24.04 25.5599 23.98C25.7999 24.44 26.0999 25.18 26.1599 25.62C28.0199 25.62 29.1799 25.58 29.8599 25.3C30.5199 25.04 30.7999 24.56 30.7999 23.5V7.26001H29.2399ZM26.5799 12.34V12.68C25.7399 17.26 23.4399 20.68 20.5799 22.48C20.9399 22.72 21.5399 23.32 21.7999 23.68C24.7399 21.68 27.1599 17.94 28.1799 12.66L27.1599 12.28L26.8999 12.34H26.5799ZM30.7199 10.52L29.5199 10.8C30.9999 16.72 33.7199 21.82 38.2799 24.08C38.5399 23.62 39.0599 23.02 39.4399 22.72C34.9599 20.76 32.0999 15.9 30.7199 10.52ZM37.2399 10.46C35.9199 12.24 33.5999 14.58 31.8999 15.96L32.9599 16.8C34.6999 15.46 36.9799 13.26 38.6199 11.44L37.2399 10.46Z" fill="url(#paint1_linear_104_2)"/>
<defs>
<linearGradient id="paint0_linear_104_2" x1="19.8799" y1="7.20001" x2="19.8799" y2="25.64" gradientUnits="userSpaceOnUse">
<stop/>
<stop offset="1" stop-color="#3D3D3D"/>
</linearGradient>
<linearGradient id="paint1_linear_104_2" x1="19.8799" y1="7.20001" x2="19.8799" y2="25.64" gradientUnits="userSpaceOnUse">
<stop/>
<stop offset="1" stop-color="#3D3D3D"/>
</linearGradient>
</defs>
</svg>
