<svg width="283" height="64" viewBox="0 0 283 64" fill="none" xmlns="http://www.w3.org/2000/svg">
<path d="M84.016 27.612V30.168H93.448V27.612H84.016ZM83.476 17.244V19.728H94.204V17.244H83.476ZM83.26 41.328L83.98 43.884C86.896 42.84 90.712 41.472 94.312 40.176L93.88 37.728C89.992 39.096 85.996 40.536 83.26 41.328ZM87.724 18.756V40.788L90.244 40.068V18.756H87.724ZM96.04 17.1V19.692H115.984V17.1H96.04ZM105.688 18.504C103.456 25.308 99.532 31.464 94.744 35.28C95.356 35.784 96.4 36.828 96.868 37.368C101.656 33.156 105.832 26.568 108.388 19.224L105.688 18.504ZM106.336 27.216C109.036 30.24 112.276 34.38 113.716 36.972L115.912 35.28C114.4 32.76 111.088 28.728 108.388 25.812L106.336 27.216ZM103.672 24.696V47.772H106.336V23.508L103.672 24.696ZM119.656 18.144V20.664H130.384V18.144H119.656ZM130.6 28.224V30.456H152.164V28.224H130.6ZM120.016 28.296V30.78H129.808V28.296H120.016ZM119.188 40.968L119.764 43.704C122.932 42.732 127.108 41.508 131.068 40.32L130.708 37.728C126.46 38.988 122.14 40.248 119.188 40.968ZM123.724 19.116V41.004L126.28 40.428V19.116H123.724ZM135.244 21.924H147.448V24.228H135.244V21.924ZM135.244 17.964H147.448V20.232H135.244V17.964ZM132.76 16.164V26.028H150.004V16.164H132.76ZM139.888 25.632V29.016H142.624V25.632H139.888ZM135.784 34.272H146.944V37.8H135.784V34.272ZM133.264 32.364V39.708H149.608V32.364H133.264ZM140.032 38.664V45.216C140.032 45.576 139.924 45.684 139.456 45.72C139.024 45.756 137.62 45.756 135.856 45.684C136.216 46.368 136.54 47.196 136.648 47.88C138.952 47.88 140.428 47.88 141.4 47.52C142.408 47.16 142.624 46.548 142.624 45.252V38.664H140.032ZM134.92 40.68C133.48 42.552 131.032 44.316 128.692 45.504C129.232 45.9 130.24 46.8 130.636 47.268C133.012 45.9 135.748 43.704 137.368 41.472L134.92 40.68ZM144.784 41.904C146.8 43.416 149.104 45.612 150.256 47.052L152.38 45.684C151.228 44.244 148.78 42.12 146.836 40.68L144.784 41.904ZM161.632 17.748V47.808H164.26V17.748H161.632ZM155.548 24.912V27.468H169.588V24.912H155.548ZM161.776 25.884C160.48 30.348 157.6 35.964 155.008 38.844C155.476 39.456 156.124 40.572 156.376 41.328C159.148 37.98 162.028 31.68 163.468 26.604L161.776 25.884ZM167.392 15.264C164.656 16.488 159.94 17.532 155.872 18.18C156.16 18.792 156.52 19.692 156.664 20.304C160.768 19.728 165.736 18.756 169.048 17.46L167.392 15.264ZM164.116 27.936L162.856 29.052C163.936 30.456 166.744 34.74 167.608 36.468L169.3 34.344C168.508 33.264 165.052 28.908 164.116 27.936ZM181.432 14.76V47.844H184.096V14.76H181.432ZM169.156 38.196L169.552 40.752L188.74 37.62L188.308 35.1L169.156 38.196ZM172.072 18.864C174.196 20.304 176.716 22.464 177.868 23.976L179.74 22.212C178.516 20.7 175.96 18.648 173.8 17.28L172.072 18.864ZM170.632 28.224C172.972 29.7 175.708 31.968 177.04 33.552L178.84 31.752C177.508 30.204 174.664 28.044 172.324 26.64L170.632 28.224ZM203.572 20.448V22.968H223.408V20.448H203.572ZM204.328 28.368V30.852H220.204V28.368H204.328ZM212.068 14.76V29.772H214.732V14.76H212.068ZM207.82 30.204L205.372 30.924C208.504 39.384 214.336 45.36 222.976 47.916C223.372 47.232 224.128 46.152 224.74 45.612C216.316 43.38 210.52 37.764 207.82 30.204ZM219.988 28.368V28.836C217.36 37.728 209.764 43.308 201.52 45.432C202.024 46.008 202.708 47.16 202.96 47.88C211.78 45.216 219.628 39.348 222.688 29.016L220.996 28.26L220.492 28.368H219.988ZM191.296 33.84L192.088 36.432C195.292 35.496 199.468 34.272 203.392 33.084L203.068 30.636C198.784 31.86 194.32 33.084 191.296 33.84ZM191.764 22.032V24.588H203.068V22.032H191.764ZM196.408 14.796V44.64C196.408 45.144 196.192 45.324 195.724 45.324C195.256 45.36 193.672 45.36 191.98 45.324C192.34 46.044 192.736 47.124 192.808 47.808C195.292 47.808 196.804 47.736 197.74 47.304C198.712 46.908 199.072 46.152 199.072 44.64V14.796H196.408Z" fill="black"/>
<path fill-rule="evenodd" clip-rule="evenodd" d="M9.26562 16.0268L37.0001 64L64.7346 16.0268C59.2055 6.44722 48.8557 0 37.0001 0C25.1445 0 14.7947 6.44722 9.26562 16.0268Z" fill="black"/>
</svg>
