<svg width="457" height="80" viewBox="0 0 457 80" fill="none" xmlns="http://www.w3.org/2000/svg">
<path d="M100.096 16.216V20.632H130.368V16.216H100.096ZM96.32 28.76V33.24H133.312V28.76H96.32ZM97.408 40.92V45.4H132.928V40.92H97.408ZM112.704 9.24V31.128H117.44V9.24H112.704ZM120.64 32.6V62.168C120.64 63.128 120.384 63.32 119.36 63.384C118.208 63.448 114.688 63.448 110.848 63.32C111.552 64.728 112.192 66.776 112.384 68.12C117.312 68.12 120.704 68.056 122.752 67.288C124.8 66.52 125.44 65.112 125.44 62.232V32.6H120.64ZM100.736 49.432C103.872 52.568 107.328 56.984 108.736 59.992L112.64 57.496C111.04 54.488 107.52 50.264 104.384 47.256L100.736 49.432ZM74.24 44.056L75.52 48.728C81.984 46.68 90.624 43.992 98.752 41.368L98.112 37.208C89.408 39.832 80.256 42.52 74.24 44.056ZM86.208 9.304V68.12H90.688V9.304H86.208ZM78.272 12.696C77.504 20.568 76.224 28.696 73.792 34.136C74.816 34.584 76.672 35.672 77.44 36.248C79.872 30.552 81.472 21.912 82.432 13.4L78.272 12.696ZM78.656 22.232L77.888 26.84H97.28V22.232H78.656ZM138.816 35.416V40.664H197.376V35.416H138.816ZM213.696 41.88V45.784H260.736V41.88H213.696ZM238.208 24.6V28.12H260.416V24.6H238.208ZM214.272 24.6V28.12H236.224V24.6H214.272ZM225.728 62.488V66.136H254.848V62.488H225.728ZM223.744 20.056V39.832H227.584V20.056H223.744ZM246.592 19.992V40.088H250.56V19.992H246.592ZM223.04 51.48V68.12H227.712V55.128H252.672V68.056H257.536V51.48H223.04ZM223.808 26.136C221.44 29.976 216.704 34.2 212.544 36.12C213.376 36.824 214.528 38.04 215.104 38.936C219.392 36.568 224.192 31.704 226.752 27.288L223.808 26.136ZM246.592 26.136C244.224 29.976 239.552 34.2 235.392 36.12C236.16 36.824 237.376 38.04 237.952 38.936C242.112 36.568 247.04 31.704 249.6 27.288L246.592 26.136ZM250.688 26.648L247.936 27.864C250.432 31.768 255.168 36.44 258.944 38.744C259.584 37.784 260.864 36.376 261.696 35.672C257.92 33.88 253.184 30.04 250.688 26.648ZM227.52 28.696L225.216 30.552C227.264 31.832 232.192 35.48 233.856 37.016L236.288 33.944C234.944 32.984 229.184 29.592 227.52 28.696ZM231.36 9.304V17.432H236.288V9.304H231.36ZM209.344 14.936V19.16H260.544V14.936H209.344ZM206.976 14.936V34.776C206.976 43.992 206.592 56.664 201.728 65.624C202.816 66.136 204.8 67.48 205.632 68.312C210.816 58.776 211.584 44.568 211.584 34.776V14.936H206.976ZM229.888 43.16C226.432 49.432 218.688 55.704 210.688 59.416C211.52 60.184 212.864 61.784 213.504 62.808C221.952 58.776 229.952 51.864 234.368 44.568L229.888 43.16ZM286.144 20.504V25.112H325.504V20.504H286.144ZM300.032 35.224V39.704H318.4V35.224H300.032ZM303.424 9.24V22.296H308.16V9.24H303.424ZM317.12 35.224V36.056C316.416 54.232 315.648 61.016 314.112 62.552C313.536 63.256 312.832 63.32 311.68 63.32C310.336 63.32 306.816 63.32 303.104 63C304 64.28 304.576 66.264 304.64 67.736C308.224 67.928 311.744 67.928 313.664 67.8C315.712 67.672 316.992 67.16 318.272 65.624C320.32 63.32 321.024 56.408 321.856 37.464C321.92 36.76 321.92 35.224 321.92 35.224H317.12ZM267.328 25.368V29.912H287.872V25.368H267.328ZM275.52 10.136V52.696H280.192V10.136H275.52ZM266.24 53.72L267.712 58.648C273.792 56.28 281.856 53.208 289.408 50.264L288.512 45.784C280.32 48.856 271.872 51.864 266.24 53.72ZM297.728 23V34.2C297.728 43.544 296.128 55.768 282.304 64.92C283.52 65.816 285.12 67.16 285.952 68.184C300.544 58.52 302.528 45.208 302.528 34.264V23H297.728ZM354.5 33.1818L347.091 16.4545H350.091L355.273 28.7273L360.455 16.4545H363.455L356.045 33.1818H354.5ZM346.545 33.1818V16.4545H349.455V33.1818H346.545ZM361.091 33.1818V16.4545H364V33.1818H361.091ZM335.636 33.1818V17.9091H338.545V33.1818H335.636ZM330.545 19V16.4545H343.636V19H330.545Z" fill="black"/>
</svg>
