<svg width="487" height="80" viewBox="0 0 487 80" fill="none" xmlns="http://www.w3.org/2000/svg">
<g clip-path="url(#clip0_104_6)">
<path d="M3.648 13.592V17.816H60.416V13.592H3.648ZM13.696 23.896V27.8H44.48V23.896H13.696ZM14.4 50.968V55.128H49.472V50.968H14.4ZM4.032 32.28V36.248H20.992V32.28H4.032ZM18.816 9.24V22.36H23.552V9.24H18.816ZM40.256 9.24V22.36H44.992V9.24H40.256ZM29.568 32.024V44.568C29.568 45.272 29.312 45.464 28.608 45.464C27.84 45.528 25.344 45.528 22.4 45.464C23.04 46.552 23.68 48.088 23.872 49.24C27.84 49.24 30.464 49.24 32.128 48.6C33.792 47.96 34.24 46.936 34.24 44.696V32.024H29.568ZM11.776 56.088C10.048 59.608 7.04 63.576 3.2 65.816L6.976 68.376C11.008 65.816 13.824 61.656 15.744 57.944L11.776 56.088ZM21.824 58.136C22.912 61.272 23.68 65.24 23.744 67.8L28.352 67.032C28.288 64.536 27.328 60.568 26.112 57.56L21.824 58.136ZM34.112 58.2C36.032 61.144 37.952 65.176 38.592 67.8L42.752 66.328C42.048 63.704 40.064 59.8 38.08 56.92L34.112 58.2ZM46.848 58.264C50.688 61.144 55.04 65.304 57.088 68.12L60.864 65.624C58.688 62.744 54.144 58.712 50.432 55.96L46.848 58.264ZM20.096 32.28V33.048C17.408 40.92 9.984 47.32 2.56 50.072C3.456 50.968 4.672 52.632 5.248 53.784C13.44 50.264 21.312 43.288 24.704 33.304L21.76 32.152L20.992 32.28H20.096ZM43.136 23.896V24.792C40.576 27.416 35.584 30.808 31.232 32.792C31.936 33.368 33.216 34.648 33.728 35.48C38.72 33.176 44.416 29.592 48.256 26.072L45.312 23.64L44.288 23.896H43.136ZM40.832 30.68L36.992 31.896C41.152 41.496 48.832 49.304 58.304 52.952C59.008 51.736 60.352 49.944 61.44 48.984C52.288 45.976 44.544 39.064 40.832 30.68ZM55.744 27.864C52.48 30.936 46.848 35.096 42.752 37.528L45.824 39.896C50.048 37.528 55.488 33.88 59.584 30.552L55.744 27.864ZM83.84 24.408V28.888H123.84V24.408H83.84ZM81.024 39.064H67.2V43.48H76.352V57.752H81.024V39.064ZM81.024 55.192H76.736C73.344 57.944 69.504 60.76 66.304 62.808L68.8 67.608C72.384 64.792 75.712 62.04 78.912 59.288C82.944 64.28 88.704 66.584 97.088 66.968C104.064 67.16 117.312 67.032 124.288 66.776C124.48 65.304 125.248 63.064 125.824 61.976C118.272 62.488 104 62.616 97.024 62.36C89.664 62.104 84.032 59.864 81.024 55.192ZM70.208 13.016C74.176 15.256 78.72 18.712 80.896 21.272L84.288 18.008C82.112 15.384 77.376 12.12 73.472 10.072L70.208 13.016ZM67.584 26.072C71.808 28.12 76.736 31.512 78.976 34.072L82.304 30.68C79.872 28.12 74.88 24.856 70.784 22.936L67.584 26.072ZM100.864 9.432C100.608 31.64 100.224 46.616 83.2 54.232C84.288 55.064 85.76 56.792 86.4 57.88C104.384 49.496 105.28 32.984 105.664 9.432H100.864ZM106.048 27.096L101.824 27.736C104.448 43.032 109.952 52.888 121.984 57.752C122.624 56.472 123.968 54.616 125.056 53.656C113.664 49.688 108.352 40.6 106.048 27.096ZM156.672 11.224C156.224 19.736 156.224 50.52 130.112 63.832C131.584 64.92 133.184 66.392 134.016 67.608C160.512 53.208 161.472 21.272 161.984 11.224H156.672ZM161.792 12.504L157.184 12.952C157.632 18.84 159.424 54.616 186.56 67.608C187.328 66.264 188.8 64.664 190.208 63.576C163.84 51.48 161.984 17.496 161.792 12.504ZM218.5 33.1818L211.091 16.4545H214.091L219.273 28.7273L224.455 16.4545H227.455L220.045 33.1818H218.5ZM210.545 33.1818V16.4545H213.455V33.1818H210.545ZM225.091 33.1818V16.4545H228V33.1818H225.091ZM199.636 33.1818V17.9091H202.545V33.1818H199.636ZM194.545 19V16.4545H207.636V19H194.545ZM253.658 37.72V41.688H271.194V37.72H253.658ZM253.658 48.856V52.824H271.386V48.856H253.658ZM240.474 60.312V64.792H285.658V60.312H240.474ZM237.53 26.136V68.184H242.202V30.616H283.418V68.184H288.282V26.136H237.53ZM251.418 28.952V62.36H255.77V28.952H251.418ZM269.338 28.952V62.168H273.754V28.952H269.338ZM259.738 15.64C259.29 19.352 258.01 24.664 256.986 28.12L261.338 29.336C262.618 26.136 263.962 21.208 265.306 16.92L259.738 15.64ZM234.65 13.528V18.136H291.354V13.528H234.65ZM331.226 10.776C329.626 20.312 326.234 28.056 320.154 32.92C320.986 34.008 322.01 36.504 322.266 37.592C329.626 31.768 333.658 22.68 335.77 11.48L331.226 10.776ZM324.378 34.712V39.192H348.506V34.712H324.378ZM346.458 34.712V35.672C345.69 54.104 344.73 60.824 343.322 62.424C342.746 63.128 342.17 63.256 341.146 63.256C340.058 63.256 337.562 63.192 334.874 62.936C335.578 64.152 336.026 66.072 336.09 67.416C338.906 67.544 341.722 67.608 343.322 67.416C345.114 67.224 346.266 66.776 347.354 65.368C349.274 63.064 350.17 56.216 351.066 36.952C351.13 36.248 351.13 34.712 351.13 34.712H346.458ZM332.314 36.952C331.226 50.2 327.77 59.352 318.938 64.536C319.962 65.304 321.626 67.16 322.202 67.992C331.546 61.784 335.578 52.056 336.922 37.208L332.314 36.952ZM345.178 10.328L340.826 11.16C343.194 22.936 346.586 30.36 353.498 37.016C354.138 35.608 355.61 34.072 356.89 33.112C350.618 27.48 347.354 21.016 345.178 10.328ZM307.546 9.304V68.12H312.026V9.304H307.546ZM297.818 31.32V35.864H320.474V31.32H297.818ZM307.354 33.176C305.37 40.536 300.954 49.816 296.922 54.68C297.754 55.896 298.906 57.944 299.482 59.352C303.898 53.72 308.25 42.904 310.49 34.392L307.354 33.176ZM311.578 38.296L309.21 40.472C311.258 42.904 316.506 49.944 318.17 52.952L321.114 49.112C319.77 47.384 313.37 39.96 311.578 38.296ZM298.266 14.616C299.546 18.968 300.954 24.664 301.466 28.44L305.242 27.48C304.666 23.768 303.258 18.136 301.85 13.784L298.266 14.616ZM317.594 13.272C316.634 17.56 314.778 23.768 313.242 27.544L316.57 28.568C318.234 24.984 320.282 19.16 321.882 14.424L317.594 13.272ZM370.266 9.432C368.41 15.32 365.082 21.016 361.306 24.792C362.074 25.816 363.354 28.12 363.738 29.144C368.09 24.536 372.122 17.624 374.49 10.648L370.266 9.432ZM368.794 16.92L367.898 21.528H385.114V16.92H368.794ZM371.29 67.352C372.314 66.264 373.978 65.24 384.73 59.224C384.41 58.264 383.962 56.408 383.834 55.128L372.378 61.144L370.714 63.064L371.29 67.352ZM365.658 27.992V32.344H384.026V27.992H365.658ZM362.906 41.048V45.4H385.498V41.048H362.906ZM371.29 67.352C371.29 65.56 376.474 62.232 376.474 62.232V29.208H372.058V58.072C372.058 60.888 370.138 62.616 368.986 63.32C369.818 64.28 370.906 66.2 371.29 67.352ZM390.618 38.872V43.096H415.77V38.872H390.618ZM390.618 50.008V54.168H415.898V50.008H390.618ZM387.866 27.544V68.12H392.218V32.088H415.642V27.544H387.866ZM413.658 27.48V62.104C413.658 62.936 413.274 63.192 412.378 63.256C411.418 63.32 408.218 63.32 404.57 63.192C405.274 64.408 405.914 66.392 406.106 67.608C410.97 67.608 413.914 67.544 415.706 66.776C417.498 66.008 418.01 64.6 418.01 62.168V27.48H413.658ZM400.922 9.176V30.552H405.402V9.176H400.922ZM386.906 13.272C389.466 17.048 392.026 21.976 393.05 25.112L397.018 23.064C395.994 19.928 393.242 15.128 390.682 11.48L386.906 13.272ZM415.706 11.096C414.106 14.808 411.162 20.056 408.986 23.256L412.698 24.984C414.938 21.912 417.69 17.112 419.866 12.952L415.706 11.096ZM436.826 61.784V65.752H473.498V61.784H436.826ZM436.698 24.408V27.8H476.058V24.408H436.698ZM436.698 32.28V35.736H476.25V32.28H436.698ZM434.458 48.408V68.248H439.258V52.44H471.834V68.248H476.762V48.408H434.458ZM456.922 9.24C456.09 11.864 454.426 15.768 453.082 18.2L457.114 19.416C458.522 17.176 460.314 13.784 461.786 10.52L456.922 9.24ZM438.874 9.112C435.802 16.536 430.618 23.768 425.049 28.504C426.074 29.336 427.802 31.256 428.506 32.216C434.202 26.968 439.833 18.776 443.482 10.584L438.874 9.112ZM453.466 18.136V42.52H458.138V18.136H453.466ZM437.082 16.408L435.226 20.056H479.322V16.408H437.082ZM434.138 19.224V44.376H482.138V40.6H438.746V19.224H434.138Z" fill="black"/>
</g>
<defs>
<clipPath id="clip0_104_6">
<rect width="487" height="80" fill="white"/>
</clipPath>
</defs>
</svg>
